<?xml version="1.0" encoding="UTF-8"?>
<svg version="1.1" xmlns="http://www.w3.org/2000/svg" width="2400" height="1260">
<path d="M0 0 C2.0022987 1.56674192 3.5404809 2.64891752 5.97119141 3.40942383 C9.8582914 2.58143541 13.04191972 0.68049634 16.47119141 -1.27807617 C53.73921066 -20.79050744 97.65023536 -25.53855486 138.02587891 -12.94995117 C166.2647445 -3.64519086 189.24196405 14.03031993 203.19775391 40.55004883 C217.65858168 69.25209678 217.43618737 99.32212728 217.37416792 130.73092079 C217.36648862 135.84409677 217.37363787 140.95725783 217.37832642 146.07043457 C217.38375227 154.63349357 217.37666803 163.19647439 217.36230469 171.75952148 C217.34590056 181.65342767 217.35133538 191.5471491 217.3677839 201.44105101 C217.3813901 209.96803732 217.38332518 218.49496803 217.3754679 227.02196169 C217.37079733 232.10180478 217.37015131 237.18156085 217.38007736 242.26139832 C217.38873502 247.02228056 217.38274725 251.78292306 217.36539459 256.54377937 C217.36142692 258.28970504 217.36256859 260.03565088 217.36918259 261.78156853 C217.37737504 264.16336783 217.36710587 266.54439728 217.35214233 268.92614746 C217.3588345 269.61708417 217.36552666 270.30802089 217.37242162 271.01989508 C217.32013885 275.3065943 216.58389709 277.99510399 213.97119141 281.40942383 C210.07312139 283.64992797 206.49065265 283.66241791 202.05712891 283.66821289 C201.3816803 283.67171753 200.70623169 283.67522217 200.01031494 283.67883301 C197.78883432 283.68759911 195.56767499 283.68181947 193.34619141 283.67504883 C191.79589782 283.67639695 190.24560464 283.67833872 188.6953125 283.68084717 C185.45064253 283.68379149 182.2060829 283.67952311 178.96142578 283.67016602 C174.80865699 283.65877184 170.65614676 283.66533503 166.50338745 283.67731094 C163.30344709 283.68454826 160.10356772 283.68223302 156.90362549 283.67705536 C155.37266001 283.67572404 153.84168893 283.6773484 152.31072998 283.68201447 C150.16875603 283.68711056 148.02719707 283.6793266 145.88525391 283.66821289 C144.66789551 283.6666217 143.45053711 283.66503052 142.19628906 283.66339111 C138.29520432 283.35619176 135.5575841 282.51990891 132.35431004 280.27759647 C130.21988788 277.39464124 130.59141721 274.89637642 130.58592224 271.34733582 C130.58068655 270.62369459 130.57545085 269.90005336 130.5700565 269.15448362 C130.55605603 266.72261251 130.56340643 264.29126915 130.57055664 261.859375 C130.56481578 260.11811857 130.55773369 258.37686611 130.54940796 256.63562012 C130.53427047 252.88040163 130.52852276 249.12532554 130.52993584 245.37007713 C130.53196846 239.42203751 130.51240555 233.47418899 130.48976135 227.52619934 C130.4487297 215.95707563 130.43018511 204.38796671 130.41358948 192.81878662 C130.39126326 178.13300269 130.35747808 163.44726311 130.30639035 148.76155072 C130.28656687 142.86038352 130.27689509 136.9593155 130.27543819 131.05811632 C130.27266711 127.36668861 130.26179079 123.67531459 130.24892807 119.98390961 C130.24468572 118.28531968 130.24376279 116.58671732 130.24660301 114.88812447 C130.27104496 98.36027786 130.27996325 81.0106287 117.97119141 68.40942383 C107.0823335 59.67462311 93.477388 58.39268065 79.97119141 59.40942383 C71.89920417 60.51561473 64.35536098 62.26559172 56.92431641 65.63989258 C54.97119141 66.40942383 54.97119141 66.40942383 51.97119141 66.40942383 C52.24833984 67.61598633 52.52548828 68.82254883 52.81103516 70.06567383 C53.17712218 71.68021146 53.54299623 73.29479739 53.90869141 74.90942383 C54.18229492 76.09665039 54.18229492 76.09665039 54.46142578 77.30786133 C54.63867188 78.09418945 54.81591797 78.88051758 54.99853516 79.69067383 C55.16087646 80.40288086 55.32321777 81.11508789 55.49047852 81.84887695 C56.64842414 88.0167458 57.11951408 94.05460063 57.1116333 100.32316589 C57.11460442 101.0778471 57.11757555 101.8325283 57.1206367 102.61007863 C57.12924679 105.11636605 57.13082531 107.62260527 57.13232422 110.12890625 C57.13695752 111.93475952 57.14198286 113.74061183 57.14736938 115.54646301 C57.16043823 120.4345985 57.16692646 125.32272029 57.17138004 130.2108705 C57.17431715 133.26566167 57.17842295 136.32044913 57.18288422 139.37523842 C57.19653896 148.93641268 57.20621789 158.49757844 57.21008611 168.05876178 C57.21457475 179.09145429 57.23216843 190.1240234 57.2610867 201.15667838 C57.28268254 209.6918816 57.29278911 218.22705002 57.29412723 226.76228029 C57.29517592 231.85798384 57.30109851 236.95357106 57.31894684 242.04924583 C57.33539323 246.83701489 57.33759979 251.62457967 57.32880783 256.41236687 C57.32803586 258.16957902 57.33240121 259.92680203 57.34226608 261.68398666 C57.35493912 264.08178009 57.34913471 266.47884466 57.33868408 268.87663269 C57.35076869 269.92050267 57.35076869 269.92050267 57.36309743 270.98546094 C57.31920931 275.28757351 56.59734552 277.98433647 53.97119141 281.40942383 C50.07312139 283.64992797 46.49065265 283.66241791 42.05712891 283.66821289 C41.3816803 283.67171753 40.70623169 283.67522217 40.01031494 283.67883301 C37.78883432 283.68759911 35.56767499 283.68181947 33.34619141 283.67504883 C31.79589782 283.67639695 30.24560464 283.67833872 28.6953125 283.68084717 C25.45064253 283.68379149 22.2060829 283.67952311 18.96142578 283.67016602 C14.80865699 283.65877184 10.65614676 283.66533503 6.50338745 283.67731094 C3.30344709 283.68454826 0.10356772 283.68223302 -3.09637451 283.67705536 C-4.62733999 283.67572404 -6.15831107 283.6773484 -7.68927002 283.68201447 C-9.83124397 283.68711056 -11.97280293 283.6793266 -14.11474609 283.66821289 C-15.33210449 283.6666217 -16.54946289 283.66503052 -17.80371094 283.66339111 C-21.70479568 283.35619176 -24.4424159 282.51990891 -27.64568996 280.27759647 C-29.78011212 277.39464124 -29.40858279 274.89637642 -29.41407776 271.34733582 C-29.41931345 270.62369459 -29.42454915 269.90005336 -29.4299435 269.15448362 C-29.44394397 266.72261251 -29.43659357 264.29126915 -29.42944336 261.859375 C-29.43518422 260.11811857 -29.44226631 258.37686611 -29.45059204 256.63562012 C-29.46572953 252.88040163 -29.47147724 249.12532554 -29.47006416 245.37007713 C-29.46803154 239.42203751 -29.48759445 233.47418899 -29.51023865 227.52619934 C-29.5512703 215.95707563 -29.56981489 204.38796671 -29.58641052 192.81878662 C-29.60873674 178.13300269 -29.64252192 163.44726311 -29.69360965 148.76155072 C-29.71343313 142.86038352 -29.72310491 136.9593155 -29.72456181 131.05811632 C-29.72733289 127.36668861 -29.73820921 123.67531459 -29.75107193 119.98390961 C-29.75531428 118.28531968 -29.75623721 116.58671732 -29.75339699 114.88812447 C-29.72988428 98.98863732 -29.76639262 82.24625083 -40.20068359 69.22973633 C-48.1151087 61.34913356 -57.71355894 59.18054286 -68.50634766 59.08129883 C-69.52438477 59.08645508 -70.54242187 59.09161133 -71.59130859 59.09692383 C-73.17443848 59.09885742 -73.17443848 59.09885742 -74.78955078 59.10083008 C-82.19442809 59.19132659 -89.02192128 59.98306805 -96.20068359 61.75317383 C-99.02880859 62.40942383 -99.02880859 62.40942383 -103.02880859 62.40942383 C-103.02604321 63.50771358 -103.02327784 64.60600332 -103.02042866 65.73757458 C-102.95387177 92.44395437 -102.90455117 119.15032343 -102.87337208 145.85676861 C-102.85789389 158.77172986 -102.83678614 171.68663638 -102.80249023 184.6015625 C-102.77261707 195.85635168 -102.75324052 207.11110122 -102.74654311 218.36592895 C-102.74262734 224.32695122 -102.73340485 230.28786008 -102.71161842 236.24884605 C-102.69128626 241.85726521 -102.68496821 247.46552401 -102.68948555 253.07397652 C-102.68865889 255.13434596 -102.68267387 257.19472067 -102.67119217 259.25505829 C-102.65629936 262.06486488 -102.65984335 264.87406345 -102.66804504 267.68388367 C-102.65930652 268.5019824 -102.650568 269.32008112 -102.64156467 270.16297072 C-102.67777457 274.74230501 -103.10912531 277.80582878 -106.02880859 281.40942383 C-110.36241664 283.45122918 -114.29497831 283.66604374 -119.04052734 283.68408203 C-120.05150986 283.69174843 -120.05150986 283.69174843 -121.08291626 283.6995697 C-123.29413924 283.71338454 -125.50504779 283.71251543 -127.71630859 283.71020508 C-129.26277786 283.71409587 -130.80924606 283.71843132 -132.35571289 283.72319031 C-135.59020459 283.73063461 -138.82458709 283.73037383 -142.05908203 283.72509766 C-146.19499285 283.71929879 -150.33045645 283.73625246 -154.46629333 283.75944233 C-157.65770053 283.77420257 -160.8490005 283.77504838 -164.04043579 283.7719326 C-165.56500129 283.77244445 -167.08957301 283.77765646 -168.61410522 283.78774452 C-170.74872615 283.8001396 -172.88248184 283.79330041 -175.01708984 283.78173828 C-176.83527222 283.78268242 -176.83527222 283.78268242 -178.69018555 283.78364563 C-182.44156012 283.36315906 -184.83007335 282.39077581 -188.02880859 280.40942383 C-190.13810782 277.24547499 -190.27976694 276.50055512 -190.2860775 272.88720226 C-190.29252639 271.95486269 -190.29897528 271.02252312 -190.3056196 270.06193084 C-190.30252239 269.03587888 -190.29942519 268.00982693 -190.29623413 266.9526825 C-190.30076524 265.86404414 -190.30529636 264.77540578 -190.30996478 263.65377837 C-190.32267678 259.98724202 -190.32098402 256.3208529 -190.31933594 252.65429688 C-190.32531696 250.0330791 -190.33212151 247.41186309 -190.33969116 244.79064941 C-190.35631772 238.39818547 -190.36180147 232.00575841 -190.36291592 225.61327466 C-190.3638657 220.41745356 -190.36797249 215.22164465 -190.37431717 210.02582741 C-190.39193482 195.29881956 -190.40115533 180.57184089 -190.39965622 165.84482243 C-190.39957631 165.05056716 -190.3994964 164.25631189 -190.39941406 163.43798828 C-190.3993323 162.6427645 -190.39925054 161.84754073 -190.3991663 161.02821926 C-190.39835346 148.14139265 -190.41748926 135.25468294 -190.4456908 122.36789014 C-190.47441097 109.13983269 -190.48823154 95.91183225 -190.48650324 82.68374282 C-190.48583899 75.25558495 -190.49134632 67.82754959 -190.51285934 60.39941978 C-190.53296126 53.41365481 -190.53240625 46.42815281 -190.51782608 39.44237518 C-190.51572955 36.87608526 -190.52048877 34.30977937 -190.532547 31.74351692 C-190.54792542 28.24440934 -190.53873924 24.74620351 -190.52328491 21.24711609 C-190.53357204 20.2277563 -190.54385916 19.20839651 -190.55445802 18.15814704 C-190.49674778 12.25909968 -189.92541031 8.92297856 -186.02880859 4.40942383 C-145.27004336 -26.82768311 -41.94471394 -32.88445383 0 0 Z " fill="#00BE6E" transform="translate(1797.02880859375,525.590576171875)"/>
<path d="M0 0 C1.12801025 0.53657227 1.12801025 0.53657227 2.27880859 1.08398438 C4.38590836 2.09524272 6.47620947 3.13408503 8.5625 4.1875 C9.73941406 4.77917969 10.91632813 5.37085938 12.12890625 5.98046875 C15.55990399 8.39383723 16.71160315 10.01812445 18 14 C18.23406843 21.22011072 13.97266192 26.86309993 10.375 32.875 C9.37641968 34.57257446 9.37641968 34.57257446 8.35766602 36.30444336 C6.60541542 39.28083817 4.8383467 42.2481365 3.06658936 45.21295166 C2.0140159 46.97651665 0.96549792 48.74242287 -0.08154297 50.50927734 C-17.61025399 80.07350266 -17.61025399 80.07350266 -22 83 C-28.9761774 84.23020763 -34.31165902 81.94707264 -40.4375 78.875 C-62.14824729 68.60274959 -84.96484226 62.82834367 -109.05859375 62.75976562 C-111.09938296 62.75012106 -113.13913622 62.71906 -115.1796875 62.6875 C-127.64799014 62.58584211 -140.01779981 63.86066754 -150 72 C-154.34183527 76.71135317 -155.23827847 82.75710406 -155 89 C-153.92753984 94.98869344 -151.91125831 99.23818513 -147 103 C-133.97597539 111.55632386 -116.96879735 113.25031815 -101.93685913 115.92947388 C-66.80091723 122.19267142 -30.04291943 130.54061866 -2 154 C-1.14277344 154.69480469 -0.28554688 155.38960937 0.59765625 156.10546875 C19.80080091 172.39994544 29.76455352 195.12436227 31.859375 219.9765625 C34.08060084 251.93753436 26.43503021 282.64155748 5.38623047 307.22851562 C-7.57395825 321.84847978 -24.62417612 331.74571049 -43 338 C-44.09489746 338.37850098 -44.09489746 338.37850098 -45.21191406 338.76464844 C-107.97234124 360.07106287 -179.4428029 351.03642958 -238.20996094 322.40527344 C-268.23603572 307.2818847 -268.23603572 307.2818847 -272 298 C-272.83972132 289.88129782 -268.29822128 283.46591869 -264.25 276.8125 C-263.22709197 275.08855147 -262.20418893 273.36459992 -261.1817627 271.6403656 C-260.14042901 269.89029562 -259.09177462 268.14481522 -258.04101562 266.40039062 C-256.12653285 263.21080736 -254.23725472 260.00811144 -252.359375 256.796875 C-235.06698766 227.24139977 -235.06698766 227.24139977 -229.375 224.9375 C-222.07584173 225.0726696 -215.93157696 230.02124632 -209.9375 233.8125 C-178.60446924 253.26310953 -137.02336345 263.90860841 -100.45703125 255.90625 C-90.56760602 253.31376791 -83.1387257 249.69074784 -77 241.25 C-75.17742018 235.32661558 -75.16419588 229.50741237 -77.125 223.625 C-87.77368968 208.71683445 -111.51618255 206.59314026 -128.12094116 203.49850464 C-170.62219807 195.57737163 -216.44937346 181.77717889 -243 145 C-247.92914027 137.63794462 -251.53562416 130.25164507 -254.375 121.875 C-254.61371826 121.17173584 -254.85243652 120.46847168 -255.09838867 119.74389648 C-258.42743093 109.25590836 -259.36686896 98.77139043 -259.3125 87.8125 C-259.30758545 86.63139648 -259.3026709 85.45029297 -259.29760742 84.23339844 C-258.95943434 58.85134101 -251.28019694 34.9188363 -234 16 C-233.31421875 15.23300781 -232.6284375 14.46601563 -231.921875 13.67578125 C-203.79772192 -16.16707007 -159.22367129 -24.43355235 -120.05810547 -25.859375 C-78.14401545 -26.94681693 -37.74810334 -18.25880919 0 0 Z " fill="#00BE6E" transform="translate(658,468)"/>
<path d="M0 0 C22.08208538 19.80297106 33.66903814 48.16831795 35.41935921 77.58593369 C35.61940866 82.84872606 35.62798715 88.11295292 35.6328125 93.37890625 C35.63925666 95.05325427 35.64598615 96.72760122 35.65298462 98.40194702 C35.66485339 101.8794822 35.66867523 105.3569187 35.66748047 108.83447266 C35.66727542 113.28879973 35.6948134 117.74250207 35.72902489 122.19668007 C35.75122941 125.640197 35.75532035 129.08356037 35.75426102 132.52714157 C35.7566176 134.17059908 35.76544445 135.81406077 35.78092575 137.45744705 C35.80049848 139.74503749 35.79478845 142.03123536 35.78271484 144.31884766 C35.78556488 145.61787018 35.78841492 146.9168927 35.79135132 148.25527954 C35.21455015 152.07210632 34.31096205 153.20779173 31.296875 155.52734375 C28.44113134 156.95521558 26.02389789 156.65003613 22.83029175 156.64759827 C21.82317459 156.6488799 21.82317459 156.6488799 20.79571164 156.65018743 C18.53549325 156.65184063 16.27534832 156.64632347 14.01513672 156.64086914 C12.39909873 156.64058721 10.78306062 156.64074512 9.16702271 156.64131165 C4.77057599 156.64159939 0.37415637 156.63570644 -4.02228403 156.62873769 C-8.6133959 156.62250025 -13.20450833 156.62190004 -17.79562378 156.62071228 C-26.49372476 156.61760012 -35.19181321 156.60938827 -43.88990867 156.59936279 C-53.7906114 156.58819809 -63.69131472 156.5826903 -73.59202218 156.57766736 C-93.96239678 156.56720557 -114.3327601 156.54960835 -134.703125 156.52734375 C-134.568042 159.07071512 -134.42648107 161.61345435 -134.28125 164.15625 C-134.24402832 164.86962524 -134.20680664 165.58300049 -134.16845703 166.31799316 C-133.47983076 178.09552769 -130.18633632 188.59350135 -121.453125 196.83984375 C-108.70722477 207.47199601 -91.51958456 208.41270902 -75.59326172 207.08251953 C-54.19884946 204.91029831 -33.89667066 198.72069002 -15.74609375 186.99609375 C-12.01583652 185.19561016 -9.79659607 184.89255234 -5.703125 185.52734375 C-1.1839586 189.0801038 2.17803389 194.0403025 5.671875 198.58984375 C6.26967773 199.36408691 6.86748047 200.13833008 7.48339844 200.93603516 C12.20352391 207.06681503 16.88594493 213.22646982 21.546875 219.40234375 C22.19060059 220.2519165 22.83432617 221.10148926 23.49755859 221.97680664 C24.39595459 223.17358032 24.39595459 223.17358032 25.3125 224.39453125 C25.84133789 225.09690918 26.37017578 225.79928711 26.91503906 226.52294922 C29.53378244 230.32151514 31.08660539 233.63882605 30.90234375 238.39453125 C28.19475429 247.93223349 11.49456081 255.05450256 3.31445312 259.63818359 C-39.7843049 283.12982788 -93.39733165 288.42890729 -140.44921875 274.83203125 C-168.6078476 266.33013533 -194.33275553 249.68026924 -208.85351562 223.44921875 C-220.51546889 201.06480407 -223.18603066 178.593035 -223.1015625 153.68359375 C-223.10359127 151.53666078 -223.10650931 149.3897285 -223.11026001 147.24279785 C-223.11464567 142.77524154 -223.10837497 138.30786696 -223.09423828 133.84033203 C-223.07714892 128.16920749 -223.0870105 122.49850919 -223.10495567 116.82740021 C-223.11589606 112.40363465 -223.11230065 107.97996694 -223.1045723 103.55619812 C-223.10259849 101.46742195 -223.10492793 99.37863631 -223.11201096 97.28987122 C-223.20203482 63.29875863 -215.9808942 30.77078403 -191.453125 5.77734375 C-171.99905293 -13.31426526 -145.41771592 -23.74637211 -118.703125 -27.47265625 C-117.43597656 -27.65570313 -116.16882812 -27.83875 -114.86328125 -28.02734375 C-75.06174661 -32.25472744 -31.22592839 -27.00040138 0 0 Z M-124.140625 55.21484375 C-135.51943493 67.61088617 -134.703125 83.41844295 -134.703125 99.52734375 C-106.323125 99.52734375 -77.943125 99.52734375 -48.703125 99.52734375 C-48.27247748 75.14795639 -48.27247748 75.14795639 -59.7421875 55.26953125 C-76.65905625 39.06998556 -107.00773714 39.61911218 -124.140625 55.21484375 Z " fill="#00BE6E" transform="translate(1547.703125,534.47265625)"/>
<path d="M0 0 C0.82161621 0.19867676 1.64323242 0.39735352 2.48974609 0.60205078 C14.42752286 3.6129958 25.29522422 7.93954373 36 14 C36.99386719 14.55429687 37.98773437 15.10859375 39.01171875 15.6796875 C46.53986918 20.16865594 52.79234383 25.87953001 59 32 C59.7321875 32.71929688 60.464375 33.43859375 61.21875 34.1796875 C82.80768326 56.88233558 88.15403416 88.84811008 88.16796875 118.92578125 C88.17118683 120.56243417 88.17455131 122.1990868 88.17805481 123.83573914 C88.18401318 127.24897937 88.18589781 130.66219439 88.18530273 134.07543945 C88.1852006 138.44788531 88.19892 142.82017065 88.21607494 147.19257832 C88.2271845 150.56488287 88.22922236 153.93714824 88.22869301 157.30946922 C88.22987211 158.92220812 88.23428996 160.53494806 88.24202538 162.14766884 C88.25181629 164.39714595 88.24895234 166.64626922 88.24291992 168.89575195 C88.24434494 170.17432571 88.24576996 171.45289948 88.24723816 172.7702179 C88.01114168 175.85445131 87.81567856 177.52827644 86 180 C82.4881064 182.30887095 79.42826337 182.24683221 75.29290771 182.24050903 C74.61978743 182.24221788 73.94666714 182.24392673 73.25314927 182.24568737 C70.99906131 182.24897998 68.74527145 182.23798252 66.49121094 182.22705078 C64.874878 182.22648662 63.25854455 182.22680333 61.64221191 182.22793579 C57.25411414 182.2285101 52.86612549 182.21674309 48.47805309 182.20278788 C43.89229573 182.1902936 39.30653592 182.18911105 34.72076416 182.18673706 C26.03687804 182.18051846 17.35304221 182.16410249 8.66917825 182.14403808 C-1.21705551 182.12169091 -11.10329166 182.11068862 -20.98954439 182.10064721 C-41.32639101 182.07973661 -61.66319234 182.04455323 -82 182 C-81.87657606 184.68678599 -81.74368063 187.37256047 -81.60546875 190.05859375 C-81.57191284 190.81023804 -81.53835693 191.56188232 -81.50378418 192.33630371 C-80.83274962 204.92245957 -76.90398965 214.65220989 -67.6875 223.25 C-54.74619849 233.73986554 -36.31285309 233.91801338 -20.5 232.3125 C0.04707031 229.91402548 19.50501928 223.74209935 36.95703125 212.46875 C40.68728848 210.66826641 42.90652893 210.36520859 47 211 C49.53515625 212.9921875 49.53515625 212.9921875 52 216 C52.48581543 216.59200195 52.97163086 217.18400391 53.47216797 217.79394531 C55.15849444 219.88148149 56.80136889 221.9979141 58.4375 224.125 C59.03860596 224.90254639 59.63971191 225.68009277 60.2590332 226.48120117 C64.79800974 232.37827812 69.26314796 238.32904616 73.6875 244.3125 C74.5690979 245.50286865 74.5690979 245.50286865 75.46850586 246.71728516 C82.7779899 256.66793942 82.7779899 256.66793942 83.5625 261.375 C82.71560186 266.83278799 79.42328714 270.05774717 75.17114258 273.46582031 C73.19097434 274.85550072 71.17892344 276.15942423 69.125 277.4375 C68.3839502 277.90631592 67.64290039 278.37513184 66.87939453 278.8581543 C24.25981674 305.3586153 -29.17872904 314.07553207 -78.12109375 302.86328125 C-108.14172191 295.55684405 -136.25882124 280.38148871 -153.1875 253.6875 C-158.48711663 244.6760487 -162.71153632 235.56009871 -165.75 225.5625 C-166.04813599 224.59812012 -166.04813599 224.59812012 -166.35229492 223.61425781 C-170.44341735 209.35407455 -170.31172338 194.90021365 -170.30078125 180.20703125 C-170.30467888 178.00811178 -170.3090157 175.80919306 -170.31376648 173.61027527 C-170.32119042 169.01872306 -170.3209659 164.4272478 -170.31567383 159.83569336 C-170.30989259 154.00414509 -170.32679675 148.17291582 -170.3500185 142.34142017 C-170.36488244 137.80356562 -170.36561035 133.26578559 -170.36250877 128.727911 C-170.36301592 126.58051613 -170.36813704 124.4331164 -170.37832069 122.28574562 C-170.449444 105.19054731 -169.54045906 88.38562874 -163.75 72.125 C-163.44626465 71.2491626 -163.1425293 70.3733252 -162.82958984 69.47094727 C-153.3731952 43.03547167 -134.22874371 23.05929395 -109.21484375 10.81640625 C-95.33399836 4.28424371 -81.1365755 0.39520261 -66 -2 C-65.35071533 -2.1045752 -64.70143066 -2.20915039 -64.0324707 -2.31689453 C-43.75798159 -5.06606116 -19.88932034 -4.81758728 0 0 Z M-71.4375 80.6875 C-82.81630993 93.08354242 -82 108.8910992 -82 125 C-53.62 125 -25.24 125 4 125 C4.50053963 100.81548224 4.50053963 100.81548224 -6.88671875 80.96484375 C-24.28671678 64.86386325 -53.88058209 64.7057822 -71.4375 80.6875 Z " fill="#00BE6E" transform="translate(869,509)"/>
<path d="M0 0 C0.65564941 -0.0065712 1.31129883 -0.0131424 1.98681641 -0.01991272 C4.15413533 -0.03960555 6.32138516 -0.05129823 8.48876953 -0.0612793 C9.2299918 -0.06535482 9.97121407 -0.06943035 10.73489761 -0.07362938 C14.65692108 -0.09447134 18.57890973 -0.10878206 22.50097656 -0.11816406 C26.54858685 -0.12923476 30.59564833 -0.16364693 34.6430645 -0.20333576 C37.75893162 -0.22949346 40.87466765 -0.23785502 43.99063492 -0.24144554 C45.48256265 -0.24631244 46.97448449 -0.25792951 48.46630478 -0.27648354 C50.55610341 -0.30086269 52.64447736 -0.29991358 54.734375 -0.29296875 C55.92223602 -0.29883499 57.11009705 -0.30470123 58.33395386 -0.31074524 C62.19881844 0.28530233 63.82058554 1.35273085 66.49658203 4.17700195 C67.36935425 6.45930481 67.36935425 6.45930481 67.71484375 9.01220703 C67.85291443 9.98598297 67.99098511 10.95975891 68.13323975 11.96304321 C68.31309418 13.55395279 68.31309418 13.55395279 68.49658203 15.17700195 C68.69069672 16.84730972 68.69069672 16.84730972 68.88873291 18.55136108 C69.29449735 22.30286811 69.65476089 26.05657857 70.00439453 29.8137207 C70.13564879 31.1880935 70.26731941 32.56242659 70.39938354 33.9367218 C70.74214912 37.51515042 71.07934045 41.09408203 71.4152832 44.67315674 C71.76056275 48.34078148 72.1112364 52.00789022 72.46142578 55.67504883 C73.14502393 62.84187851 73.82272071 70.00924949 74.49658203 77.17700195 C75.51349373 77.16367828 75.51349373 77.16367828 76.5509491 77.15008545 C83.60736662 77.06158705 90.66362648 77.0012569 97.72045898 76.95727539 C100.35398767 76.93716097 102.9874717 76.90986592 105.62084961 76.87524414 C109.4063621 76.82672108 113.19128404 76.80403083 116.97705078 76.78637695 C118.15430222 76.76573181 119.33155365 76.74508667 120.54447937 76.72381592 C128.69825841 76.72157797 128.69825841 76.72157797 132.71655273 79.01391602 C135.62830718 82.55227076 135.62877337 85.5202623 135.65771484 89.94604492 C135.66732239 91.13092499 135.67692993 92.31580505 135.68682861 93.53659058 C135.69320343 95.45847702 135.69320343 95.45847702 135.69970703 97.41918945 C135.7054071 98.73484894 135.71110718 100.05050842 135.71697998 101.40603638 C135.72747922 104.19183742 135.73332895 106.9776097 135.73681641 109.76342773 C135.74229959 113.32668453 135.76632785 116.88955892 135.79478836 120.45269585 C135.81793246 123.85818637 135.8198654 127.26362436 135.82470703 130.66918945 C135.83705383 131.94639862 135.84940063 133.22360779 135.86212158 134.53952026 C135.85912048 135.73070465 135.85611938 136.92188904 135.85302734 138.14916992 C135.85849579 139.71778275 135.85849579 139.71778275 135.86407471 141.31808472 C135.4358272 144.6496455 134.48652918 146.49032166 132.49658203 149.17700195 C129.13010278 151.42132146 128.04035557 151.42205355 124.10717773 151.40405273 C123.00626297 151.40390167 121.90534821 151.40375061 120.77107239 151.40359497 C118.98971138 151.38811111 118.98971138 151.38811111 117.17236328 151.37231445 C115.95582565 151.36948456 114.73928802 151.36665466 113.48588562 151.36373901 C109.59351845 151.35252798 105.70137987 151.32742143 101.80908203 151.30200195 C99.17301764 151.29197336 96.53694965 151.2828473 93.90087891 151.2746582 C87.43270172 151.25258562 80.9646582 151.21909884 74.49658203 151.17700195 C74.55737738 165.01679282 74.63524968 178.85639978 74.73229694 192.69598579 C74.77687932 199.12340141 74.81616195 205.55075541 74.84301758 211.97827148 C74.86917183 218.18999805 74.9096592 224.40148594 74.9597683 230.61306381 C74.97635534 232.97388599 74.98792011 235.33474938 74.99419594 237.69562149 C74.69949878 263.73511142 74.69949878 263.73511142 86.49658203 286.17700195 C89.38996967 288.00217004 89.38996967 288.00217004 92.55908203 289.42700195 C93.60193359 289.9271582 94.64478516 290.42731445 95.71923828 290.94262695 C100.44736963 293.04401866 104.18800235 293.24313167 109.27001953 293.09887695 C110.83249873 293.07161563 112.3950003 293.04561326 113.95751953 293.02075195 C116.41581359 292.97753783 118.87294212 292.92696198 121.33056641 292.85473633 C123.70639923 292.78794585 126.08096789 292.75331279 128.45751953 292.72387695 C129.55306656 292.68046173 129.55306656 292.68046173 130.67074585 292.63616943 C134.41881862 292.6166041 136.22523547 292.96184829 139.19143677 295.31378174 C141.93319627 298.71932036 142.11979859 300.224584 142.11181641 304.5402832 C142.12577454 306.43750122 142.12577454 306.43750122 142.14001465 308.37304688 C142.12442727 309.74520997 142.10784217 311.11736205 142.09033203 312.48950195 C142.08861966 313.9052724 142.0886879 315.32104602 142.0904541 316.73681641 C142.08880327 319.69928459 142.07015097 322.66099382 142.03857422 325.62329102 C141.99889631 329.41304044 141.99453021 333.20179674 142.00203705 336.99171448 C142.00511241 339.91378819 141.99296631 342.83564028 141.97590637 345.75765991 C141.96889487 347.15463876 141.96574959 348.55164273 141.96659851 349.94863892 C141.96479299 351.90373665 141.94109792 353.85877683 141.91650391 355.8137207 C141.90808472 356.92448975 141.89966553 358.03525879 141.89099121 359.1796875 C141.44574745 362.56331958 140.49851865 364.43784105 138.49658203 367.17700195 C129.22451621 374.26687842 112.80082106 372.52201054 101.63623047 372.49267578 C99.13090487 372.48951372 96.6267632 372.51309204 94.12158203 372.53833008 C64.06910503 372.65646914 36.01903545 363.66773444 13.80908203 342.98950195 C-9.86791669 318.41011308 -12.97385527 285.27553226 -12.89160156 252.95288086 C-12.89567404 250.24738015 -12.90091257 247.54190392 -12.90753174 244.83641052 C-12.92076815 238.29624938 -12.91803869 231.75619237 -12.90929382 225.21602739 C-12.90248561 219.90231425 -12.90161398 214.58863005 -12.90486526 209.27491379 C-12.90532496 208.51528316 -12.90578466 207.75565253 -12.90625829 206.97300278 C-12.90721755 205.42943831 -12.90819019 203.88587385 -12.90917607 202.3423094 C-12.9176982 187.92418015 -12.90794174 173.50610847 -12.89177497 159.08798866 C-12.87833657 146.71951917 -12.88073491 134.35113404 -12.89453125 121.98266602 C-12.91057788 107.59021409 -12.91691443 93.19781218 -12.90769446 78.80535257 C-12.90673886 77.27212485 -12.90579574 75.73889713 -12.90486526 74.2056694 C-12.90440244 73.45141171 -12.90393961 72.69715401 -12.90346276 71.92004002 C-12.90087295 66.60622319 -12.90524287 61.29243816 -12.91230392 55.97862625 C-12.92070723 49.51340266 -12.91846193 43.04828836 -12.90246169 36.58307733 C-12.89456897 33.28525082 -12.89311542 29.9876448 -12.90140915 26.68981361 C-12.90956497 23.11867812 -12.8993754 19.54806136 -12.8843689 15.97695923 C-12.89106106 14.93087797 -12.89775323 13.88479671 -12.90464818 12.80701602 C-12.89682494 11.85221862 -12.8890017 10.89742122 -12.88094139 9.91369057 C-12.88045433 9.08958203 -12.87996728 8.26547349 -12.87946546 7.41639197 C-12.4071892 4.60395265 -11.44717409 3.24055845 -9.50341797 1.17700195 C-6.13603683 0.05454157 -3.55002823 0.02945975 0 0 Z " fill="#00BE6E" transform="translate(992.50341796875,442.822998046875)"/>
<path d="M0 0 C0.8780127 0.1330957 1.75602539 0.26619141 2.66064453 0.40332031 C3.4442334 0.54092773 4.22782227 0.67853516 5.03515625 0.8203125 C5.69008057 0.92875488 6.34500488 1.03719727 7.01977539 1.14892578 C10.26405335 2.54327333 12.35509504 3.88105721 14 7 C14.75333859 11.62062701 14.67602679 16.20253202 14.62890625 20.875 C14.62973558 22.2459329 14.63219736 23.6168657 14.63621521 24.98779297 C14.63906872 27.85610002 14.62441791 30.72362426 14.59692383 33.59179688 C14.56283995 37.26064706 14.56886245 40.92809819 14.5875864 44.59701538 C14.59817655 47.42646865 14.58920069 50.25559872 14.57420158 53.08502197 C14.56652867 55.09296368 14.57386085 57.10094464 14.58143616 59.10888672 C14.56559982 60.33365723 14.54976349 61.55842773 14.53344727 62.8203125 C14.5241494 64.43317139 14.5241494 64.43317139 14.5146637 66.07861328 C13.87486944 69.71027887 12.57822898 71.40567081 10 74 C7.3359375 74.5234375 7.3359375 74.5234375 4.375 74.375 C3.41335938 74.34148437 2.45171875 74.30796875 1.4609375 74.2734375 C-0.37683512 74.12824102 -2.214737 73.97478205 -4.0456543 73.75976562 C-12.20687076 72.81752468 -20.35825293 72.75858022 -28.5625 72.75 C-29.69742889 72.74799088 -29.69742889 72.74799088 -30.85528564 72.74594116 C-41.86086165 72.7501697 -52.29301643 73.24968604 -63 76 C-65.07670379 76.5209005 -67.15371245 77.04058642 -69.23095703 77.55932617 C-70.31136261 77.82919846 -71.39176819 78.09907074 -72.50491333 78.37712097 C-73.32829193 78.58267105 -74.15167053 78.78822113 -75 79 C-74.99631283 80.10436527 -74.99262566 81.20873055 -74.98882675 82.34656143 C-74.90010405 109.19444489 -74.83433291 136.04230938 -74.79275131 162.89030838 C-74.77210927 175.87370253 -74.74395723 188.85699996 -74.69824219 201.84033203 C-74.65842478 213.15407555 -74.63257914 224.46774903 -74.62364602 235.78156066 C-74.61842266 241.7744474 -74.60611162 247.76713373 -74.57707977 253.75995636 C-74.5499913 259.3971321 -74.54154175 265.03402429 -74.54756927 270.67125893 C-74.5464661 272.74334312 -74.53847335 274.81543649 -74.5231781 276.88746452 C-74.5033531 279.71091147 -74.50803347 282.53327995 -74.51898193 285.35675049 C-74.50150488 286.59410426 -74.50150488 286.59410426 -74.48367476 287.85645509 C-74.521986 291.49744582 -74.66329917 293.56180261 -76.91629982 296.49395752 C-81.01846876 299.45889497 -84.91084311 299.13366419 -89.87646484 299.16113281 C-90.5599147 299.16609772 -91.24336456 299.17106262 -91.94752502 299.17617798 C-94.2020062 299.19074841 -96.45641703 299.19759265 -98.7109375 299.203125 C-100.28268434 299.20888022 -101.85443116 299.21463791 -103.42617798 299.22039795 C-106.71966884 299.23089306 -110.0131354 299.23674561 -113.30664062 299.24023438 C-117.51880494 299.2457191 -121.73064601 299.26975274 -125.94270897 299.29820633 C-129.18900481 299.3168641 -132.43522322 299.32203995 -135.68156815 299.32357025 C-137.23405349 299.32658971 -138.78653769 299.33459435 -140.33897018 299.34775543 C-142.51447668 299.36488393 -144.68919882 299.36291973 -146.86474609 299.35644531 C-148.10066498 299.36009094 -149.33658386 299.36373657 -150.60995483 299.36749268 C-154.39392071 298.95729763 -156.77837626 298.00247327 -160 296 C-162.10788778 292.83816833 -162.25058549 292.09983707 -162.25447559 288.49060249 C-162.26030779 287.56112962 -162.26613998 286.63165674 -162.27214891 285.67401803 C-162.26836958 284.6511749 -162.26459026 283.62833178 -162.26069641 282.57449341 C-162.26452196 281.48923303 -162.26834751 280.40397266 -162.27228898 279.28582561 C-162.2826497 275.63076878 -162.27862097 271.97586814 -162.2746582 268.32080078 C-162.27900299 265.70781305 -162.28418535 263.09482659 -162.29014587 260.48184204 C-162.30291206 254.10976176 -162.30468415 247.73772358 -162.30234561 241.36563267 C-162.30056428 236.18696602 -162.30230811 231.00831218 -162.30657005 225.82964706 C-162.30716524 225.09325106 -162.30776043 224.35685505 -162.30837366 223.59814402 C-162.30958538 222.10225527 -162.31079951 220.60636653 -162.31201603 219.11047779 C-162.32289915 205.0734368 -162.32072554 191.03641982 -162.31463119 176.99937747 C-162.30946241 164.15392768 -162.32071503 151.30855372 -162.33972941 138.46311893 C-162.35909554 125.27913794 -162.36736589 112.09519285 -162.36360615 98.91119754 C-162.36169211 91.50712964 -162.36420134 84.10312629 -162.37832069 76.69906998 C-162.39146229 69.7371424 -162.38899107 62.77536928 -162.37590981 55.81344223 C-162.37353609 53.25479838 -162.37630696 50.69614394 -162.38453293 48.13751221 C-162.39493474 44.65132083 -162.38695215 41.16564623 -162.3742218 37.67947388 C-162.38159609 36.6610922 -162.38897037 35.64271052 -162.39656812 34.59346879 C-162.35796294 29.58637865 -162.31422288 26.03705806 -159 22 C-154.98265235 18.12168624 -150.40553067 16.20464128 -145.3125 14.125 C-144.05336792 13.60619263 -144.05336792 13.60619263 -142.76879883 13.0769043 C-97.20315679 -5.42012407 -48.20882674 -8.40677397 0 0 Z " fill="#00BE6E" transform="translate(1313,510)"/>
</svg>
